<svg width="38" height="38" xmlns="http://www.w3.org/2000/svg" xmlns:xlink="http://www.w3.org/1999/xlink"
     xml:space="preserve" overflow="hidden"><g transform="translate(-1172 -11)"><path d="M1201.45 40.0146 1194.32 37.5604 1194.29 37.5604 1191.44 36.5708 1204.78 18.9562 1201.45 40.0146ZM1192.54 38.6688 1189.93 41.2812 1190.64 38.0354 1192.54 38.6688 1192.54 38.6688ZM1189.38 36.65C1189.3 36.7292 1189.26 36.8479 1189.22 36.9667L1189.1 37.4813 1188.31 41.0833 1186.41 35.5417 1201.21 21.2917 1189.85 36.0563 1189.38 36.65ZM1177.94 31.9792 1201.13 19.6292 1185.26 34.4729 1177.94 31.9792ZM1206.52 15.5125C1206.28 15.3146 1205.92 15.3146 1205.65 15.4729L1175.6 31.425C1175.32 31.5833 1175.17 31.8604 1175.17 32.1771 1175.17 32.4938 1175.4 32.7708 1175.68 32.85L1183.91 35.6604 1184.94 36.0167 1185.18 36.6896 1187.64 44.0521 1187.64 44.0917 1187.64 44.1312C1187.71 44.3688 1187.95 44.5667 1188.23 44.6458 1188.51 44.725 1188.78 44.6458 1188.98 44.4479L1189.02 44.4083 1189.26 44.1708 1194.25 39.2625 1201.85 41.875C1202.08 41.9542 1202.32 41.9146 1202.52 41.7958 1202.72 41.6771 1202.88 41.4792 1202.91 41.2417L1206.87 16.3042C1206.91 15.9479 1206.75 15.6708 1206.52 15.5125Z" stroke="currentColor" stroke-width="0.395833" fill="currentColor"/></g></svg>