<svg width="46" height="46" xmlns="http://www.w3.org/2000/svg" xmlns:xlink="http://www.w3.org/1999/xlink" xml:space="preserve" overflow="hidden"><g transform="translate(-1105 -6)"><path d="M1145.73 23.9208C1144.91 21.9562 1142.66 21.0458 1140.7 21.8604 1139.07 22.5312 1138.11 24.2562 1138.35 25.9333L1132.17 28.5208C1131.5 27.3708 1130.3 26.5083 1128.96 26.2687L1128.96 19.6083C1130.59 19.1771 1131.83 17.6917 1131.83 15.9187 1131.83 13.8104 1130.11 12.0854 1128 12.0854L1128 12.0854C1125.89 12.0854 1124.17 13.8104 1124.17 15.9187 1124.17 17.6917 1125.41 19.1771 1127.04 19.6083L1127.04 26.2208C1125.65 26.4604 1124.5 27.3229 1123.83 28.4729L1117.65 25.8854C1117.89 24.2083 1116.98 22.4833 1115.3 21.8125 1113.34 20.9979 1111.09 21.9083 1110.27 23.8729 1109.46 25.8375 1110.37 28.0896 1112.33 28.9042 1113.96 29.575 1115.83 29.0479 1116.84 27.6583L1123.16 30.2458C1123.11 30.4375 1123.11 30.6771 1123.11 30.8687 1123.11 31.9229 1123.45 32.9292 1124.07 33.7438L1119.09 38.775C1117.6 37.9125 1115.69 38.1042 1114.44 39.35 1112.95 40.8354 1112.95 43.2792 1114.44 44.7646 1115.93 46.25 1118.37 46.25 1119.85 44.7646 1121.1 43.5187 1121.29 41.6021 1120.43 40.1167L1125.51 35.0375C1126.23 35.4688 1127.04 35.7083 1127.9 35.7083 1127.95 35.7083 1127.95 35.7083 1128 35.7083 1128.05 35.7083 1128.05 35.7083 1128.1 35.7083 1128.96 35.7083 1129.77 35.4688 1130.49 35.0375L1135.57 40.1167C1134.71 41.6021 1134.9 43.5187 1136.15 44.8125 1137.63 46.2979 1140.07 46.2979 1141.56 44.8125 1143.05 43.3271 1143.05 40.8833 1141.56 39.3979 1140.31 38.1521 1138.4 37.9604 1136.91 38.8229L1131.93 33.7917C1132.55 32.9771 1132.89 32.0187 1132.89 30.9167 1132.89 30.725 1132.89 30.4854 1132.84 30.2938L1139.16 27.7062C1140.17 29.0479 1142.04 29.6229 1143.67 28.9521 1145.59 28.0896 1146.54 25.8854 1145.73 23.9208Z" fill="#FFFFFF"/></g></svg>