<svg width="50" height="50" xmlns="http://www.w3.org/2000/svg" xmlns:xlink="http://www.w3.org/1999/xlink"
     xml:space="preserve" overflow="hidden">
    <g transform="scale(1.5)">
    <g transform="translate(-902 -270)">
        <path d="M929.524 291.667 918.94 273.25C918.642 272.731 917.98 272.551 917.461 272.849 917.294 272.945 917.156 273.083 917.06 273.25L906.476 291.667C906.177 292.185 906.354 292.847 906.873 293.147 907.037 293.241 907.223 293.291 907.413 293.292L928.587 293.292C929.185 293.291 929.67 292.806 929.669 292.207 929.669 292.017 929.619 291.831 929.524 291.667ZM918 284.574C918.468 284.574 918.848 284.953 918.848 285.421 918.848 285.889 918.468 286.269 918 286.269 917.532 286.269 917.152 285.889 917.152 285.421 917.154 284.954 917.532 284.575 918 284.574ZM915.711 281.435 917.309 284.224C916.879 284.47 916.613 284.926 916.611 285.421L913.396 285.421C913.399 283.774 914.282 282.253 915.711 281.435ZM918 290.042C917.196 290.039 916.407 289.826 915.711 289.424L917.309 286.621C917.734 286.875 918.264 286.875 918.688 286.621L920.291 289.421C919.598 289.833 918.806 290.047 918 290.042ZM919.392 285.438C919.39 284.942 919.123 284.486 918.693 284.24L920.291 281.451C921.715 282.268 922.596 283.78 922.604 285.421Z"
              fill="#FFFF00"/>
    </g>
    </g>
</svg>