<svg width="50" height="50" xmlns="http://www.w3.org/2000/svg" xmlns:xlink="http://www.w3.org/1999/xlink" xml:space="preserve" overflow="hidden">
    <g transform="scale(1.25)">
    <g transform="translate(-898 -189)">
        <path d="M910.708 204.329C907.832 204.329 905.5 206.661 905.5 209.538 905.5 212.414 907.832 214.746 910.708 214.746 913.585 214.746 915.917 212.414 915.917 209.538 915.917 206.661 913.585 204.329 910.708 204.329ZM910.708 206.346C911.516 206.344 912.173 206.996 912.175 207.804 912.177 208.612 911.524 209.268 910.717 209.271 909.909 209.273 909.252 208.62 909.25 207.812 909.25 207.811 909.25 207.81 909.25 207.808 909.25 207.002 909.902 206.348 910.708 206.346ZM913.625 212.208 907.792 212.208 907.792 211.083C907.797 210.855 907.904 210.641 908.083 210.5 908.516 210.2 908.997 209.975 909.504 209.833 909.896 209.721 910.301 209.661 910.708 209.654 911.116 209.655 911.522 209.716 911.912 209.833 912.429 209.968 912.914 210.204 913.338 210.529 913.517 210.671 913.624 210.884 913.629 211.113Z" fill="#FFFFFF"/><path d="M921.708 202.967 916.608 206.025C916.896 206.507 917.125 207.022 917.292 207.558L922.546 204.417C922.194 203.979 921.912 203.49 921.708 202.967Z" fill="#FFFFFF"/><path d="M930.5 200.996C930.5 203.067 928.821 204.746 926.75 204.746 924.679 204.746 923 203.067 923 200.996 923 198.925 924.679 197.246 926.75 197.246 928.821 197.246 930.5 198.925 930.5 200.996Z" fill="#FFFFFF"/><path d="M922.546 214.667 917.292 211.5C917.125 212.036 916.896 212.551 916.608 213.033L921.708 216.108C921.913 215.588 922.195 215.102 922.546 214.667Z" fill="#FFFFFF"/><path d="M930.5 218.079C930.5 220.15 928.821 221.829 926.75 221.829 924.679 221.829 923 220.15 923 218.079 923 216.008 924.679 214.329 926.75 214.329 928.821 214.329 930.5 216.008 930.5 218.079Z" fill="#FFFFFF"/>
    </g>
    </g>
</svg>