<svg width="39" height="39" xmlns="http://www.w3.org/2000/svg" xmlns:xlink="http://www.w3.org/1999/xlink" xml:space="preserve" overflow="hidden"><g transform="translate(-1222 -10)"><path d="M1248 22.1875C1248 25.7774 1245.09 28.6875 1241.5 28.6875 1237.91 28.6875 1235 25.7774 1235 22.1875 1235 18.5976 1237.91 15.6875 1241.5 15.6875 1245.09 15.6875 1248 18.5976 1248 22.1875Z" fill="#FFFFFF"/><path d="M1254.5 43.3125 1254.5 36.8125C1254.5 35.8375 1254.01 34.8625 1253.2 34.2125 1251.41 32.75 1249.14 31.775 1246.86 31.125 1245.24 30.6375 1243.45 30.3125 1241.5 30.3125 1239.71 30.3125 1237.93 30.6375 1236.14 31.125 1233.86 31.775 1231.59 32.9125 1229.8 34.2125 1228.99 34.8625 1228.5 35.8375 1228.5 36.8125L1228.5 43.3125 1254.5 43.3125Z" fill="#FFFFFF"/></g></svg>